<mxfile host="65bd71144e">
    <diagram name="PÃ¡gina-1" id="wmexFkZFV4C5G2_LSLB-">
        <mxGraphModel dx="306" dy="1360" grid="1" gridSize="10" guides="1" tooltips="1" connect="1" arrows="1" fold="1" page="1" pageScale="1" pageWidth="827" pageHeight="1169" background="#FFFFFF" math="0" shadow="0">
            <root>
                <mxCell id="0"/>
                <mxCell id="1" parent="0"/>
                <mxCell id="sc01ruT6ysA6_fWMWiFZ-7" style="edgeStyle=orthogonalEdgeStyle;rounded=0;orthogonalLoop=1;jettySize=auto;html=1;exitX=1;exitY=0.5;exitDx=0;exitDy=0;entryX=0;entryY=0;entryDx=0;entryDy=0;endArrow=none;endFill=0;" parent="1" source="24jAjjag3Yym39tfX2p5-2" target="24jAjjag3Yym39tfX2p5-18" edge="1">
                    <mxGeometry relative="1" as="geometry">
                        <mxPoint x="679.9999999999998" y="-770" as="targetPoint"/>
                        <Array as="points">
                            <mxPoint x="714" y="-803"/>
                        </Array>
                    </mxGeometry>
                </mxCell>
                <mxCell id="24jAjjag3Yym39tfX2p5-2" value="Contrato" style="swimlane;whiteSpace=wrap;html=1;align=center;" parent="1" vertex="1">
                    <mxGeometry x="318" y="-873" width="200" height="143" as="geometry">
                        <mxRectangle x="290" y="50" width="90" height="30" as="alternateBounds"/>
                    </mxGeometry>
                </mxCell>
                <mxCell id="24jAjjag3Yym39tfX2p5-3" value="&lt;div style=&quot;text-align: justify;&quot;&gt;idContrato: Integer&lt;/div&gt;&lt;div style=&quot;text-align: justify;&quot;&gt;objetoContrato:&amp;nbsp;String&lt;/div&gt;&lt;div style=&quot;text-align: justify;&quot;&gt;fundamentacao:&amp;nbsp;String [0..1]&lt;/div&gt;&lt;div style=&quot;text-align: justify;&quot;&gt;dataPublicacao: Date&lt;/div&gt;&lt;div style=&quot;text-align: justify;&quot;&gt;dataCelebracaoContrato: Date&lt;/div&gt;&lt;div style=&quot;text-align: justify;&quot;&gt;precoContratual: Float&lt;/div&gt;&lt;div style=&quot;text-align: justify;&quot;&gt;procedimentoCentralizado: Boolean&lt;span style=&quot;background-color: initial; color: rgba(0, 0, 0, 0); font-family: monospace; font-size: 0px; text-align: left; text-wrap-mode: nowrap;&quot;&gt;%3CmxGraphModel%3E%3Croot%3E%3CmxCell%20id%3D%220%22%2F%3E%3CmxCell%20id%3D%221%22%20parent%3D%220%22%2F%3E%3CmxCell%20id%3D%222%22%20value%3D%22Contrato%22%20style%3D%22swimlane%3BwhiteSpace%3Dwrap%3Bhtml%3D1%3B%22%20vertex%3D%221%22%20parent%3D%221%22%3E%3CmxGeometry%20x%3D%22290%22%20y%3D%2250%22%20width%3D%22200%22%20height%3D%22200%22%20as%3D%22geometry%22%3E%3CmxRectangle%20x%3D%22290%22%20y%3D%2250%22%20width%3D%2290%22%20height%3D%2230%22%20as%3D%22alternateBounds%22%2F%3E%3C%2FmxGeometry%3E%3C%2FmxCell%3E%3CmxCell%20id%3D%223%22%20value%3D%22%26lt%3Bdiv%20style%3D%26quot%3Btext-align%3A%20justify%3B%26quot%3B%26gt%3BidContrato%26lt%3B%2Fdiv%26gt%3B%26lt%3Bdiv%20style%3D%26quot%3Btext-align%3A%20justify%3B%26quot%3B%26gt%3BtipoContrato%26lt%3B%2Fdiv%26gt%3B%26lt%3Bdiv%20style%3D%26quot%3Btext-align%3A%20justify%3B%26quot%3B%26gt%3BdataPublicacao%26lt%3B%2Fdiv%26gt%3B%26lt%3Bdiv%20style%3D%26quot%3Btext-align%3A%20justify%3B%26quot%3B%26gt%3BprecoContratual%26lt%3B%2Fdiv%26gt%3B%26lt%3Bdiv%20style%3D%26quot%3Btext-align%3A%20justify%3B%26quot%3B%26gt%3Bcpv%26lt%3B%2Fdiv%26gt%3B%26lt%3Bdiv%20style%3D%26quot%3Btext-align%3A%20justify%3B%26quot%3B%26gt%3BprocedimentoCentralizado%26lt%3B%2Fdiv%26gt%3B%26lt%3Bdiv%20style%3D%26quot%3Btext-align%3A%20justify%3B%26quot%3B%26gt%3BdescrAcordoQuadro%26lt%3B%2Fdiv%26gt%3B%26lt%3Bdiv%20style%3D%26quot%3Btext-align%3A%20justify%3B%26quot%3B%26gt%3Bfundamentacao%26lt%3B%2Fdiv%26gt%3B%22%20style%3D%22whiteSpace%3Dwrap%3Bhtml%3D1%3Balign%3Dleft%3B%22%20vertex%3D%221%22%20parent%3D%222%22%3E%3CmxGeometry%20y%3D%2223%22%20width%3D%22200%22%20height%3D%22177%22%20as%3D%22geometry%22%2F%3E%3C%2FmxCell%3E%3C%2Froot%3E%3C%2FmxG&lt;/span&gt;&lt;/div&gt;&lt;div style=&quot;text-align: justify;&quot;&gt;&lt;span style=&quot;text-align: left;&quot;&gt;prazoExecucao:&amp;nbsp;&lt;/span&gt;&lt;span style=&quot;background-color: initial; text-align: left;&quot;&gt;Integer&lt;/span&gt;&lt;/div&gt;" style="whiteSpace=wrap;html=1;align=left;" parent="24jAjjag3Yym39tfX2p5-2" vertex="1">
                    <mxGeometry y="24" width="200" height="126" as="geometry"/>
                </mxCell>
                <mxCell id="24jAjjag3Yym39tfX2p5-4" value="Entidade" style="swimlane;whiteSpace=wrap;html=1;align=center;" parent="1" vertex="1">
                    <mxGeometry x="318" y="-638" width="200" height="60" as="geometry"/>
                </mxCell>
                <mxCell id="24jAjjag3Yym39tfX2p5-6" value="nif: Integer&lt;div&gt;designacao: String&lt;/div&gt;" style="rounded=0;whiteSpace=wrap;html=1;align=left;" parent="24jAjjag3Yym39tfX2p5-4" vertex="1">
                    <mxGeometry y="23" width="200" height="37" as="geometry"/>
                </mxCell>
                <mxCell id="24jAjjag3Yym39tfX2p5-17" value="Municipio" style="swimlane;whiteSpace=wrap;html=1;" parent="1" vertex="1">
                    <mxGeometry x="695" y="-825" width="200" height="45" as="geometry"/>
                </mxCell>
                <mxCell id="24jAjjag3Yym39tfX2p5-18" value="&lt;div&gt;nome: String&lt;/div&gt;" style="rounded=0;whiteSpace=wrap;html=1;align=left;" parent="24jAjjag3Yym39tfX2p5-17" vertex="1">
                    <mxGeometry y="23" width="200" height="27" as="geometry"/>
                </mxCell>
                <mxCell id="24jAjjag3Yym39tfX2p5-19" style="edgeStyle=orthogonalEdgeStyle;rounded=0;orthogonalLoop=1;jettySize=auto;html=1;exitX=0.25;exitY=1;exitDx=0;exitDy=0;entryX=0.25;entryY=0;entryDx=0;entryDy=0;endArrow=none;endFill=0;" parent="1" source="24jAjjag3Yym39tfX2p5-3" target="24jAjjag3Yym39tfX2p5-4" edge="1">
                    <mxGeometry relative="1" as="geometry"/>
                </mxCell>
                <mxCell id="24jAjjag3Yym39tfX2p5-20" style="edgeStyle=orthogonalEdgeStyle;rounded=0;orthogonalLoop=1;jettySize=auto;html=1;exitX=0.75;exitY=1;exitDx=0;exitDy=0;entryX=0.75;entryY=0;entryDx=0;entryDy=0;endArrow=none;endFill=0;" parent="1" source="24jAjjag3Yym39tfX2p5-3" target="24jAjjag3Yym39tfX2p5-4" edge="1">
                    <mxGeometry relative="1" as="geometry"/>
                </mxCell>
                <mxCell id="24jAjjag3Yym39tfX2p5-21" value="adjudicante" style="text;html=1;align=center;verticalAlign=middle;whiteSpace=wrap;rounded=0;" parent="1" vertex="1">
                    <mxGeometry x="303" y="-693" width="60" height="30" as="geometry"/>
                </mxCell>
                <mxCell id="24jAjjag3Yym39tfX2p5-22" value="adjudicatarios" style="text;html=1;align=center;verticalAlign=middle;whiteSpace=wrap;rounded=0;" parent="1" vertex="1">
                    <mxGeometry x="478" y="-693" width="60" height="30" as="geometry"/>
                </mxCell>
                <mxCell id="24jAjjag3Yym39tfX2p5-28" value="TipoProcedimento" style="swimlane;whiteSpace=wrap;html=1;" parent="1" vertex="1">
                    <mxGeometry x="423" y="-994" width="210" height="50" as="geometry"/>
                </mxCell>
                <mxCell id="24jAjjag3Yym39tfX2p5-29" value="tipo:&amp;nbsp;String" style="whiteSpace=wrap;html=1;align=left;" parent="24jAjjag3Yym39tfX2p5-28" vertex="1">
                    <mxGeometry y="24" width="210" height="26" as="geometry"/>
                </mxCell>
                <mxCell id="24jAjjag3Yym39tfX2p5-30" value="TipoContrato" style="swimlane;whiteSpace=wrap;html=1;" parent="1" vertex="1">
                    <mxGeometry x="187" y="-994" width="200" height="50" as="geometry">
                        <mxRectangle x="290" y="50" width="90" height="30" as="alternateBounds"/>
                    </mxGeometry>
                </mxCell>
                <mxCell id="24jAjjag3Yym39tfX2p5-31" value="tipo:&amp;nbsp;String" style="whiteSpace=wrap;html=1;align=left;" parent="24jAjjag3Yym39tfX2p5-30" vertex="1">
                    <mxGeometry y="23" width="200" height="27" as="geometry"/>
                </mxCell>
                <mxCell id="2" style="edgeStyle=none;html=1;exitX=1;exitY=0.5;exitDx=0;exitDy=0;entryX=0;entryY=0.083;entryDx=0;entryDy=0;entryPerimeter=0;" edge="1" parent="1" source="24jAjjag3Yym39tfX2p5-33" target="24jAjjag3Yym39tfX2p5-2">
                    <mxGeometry relative="1" as="geometry"/>
                </mxCell>
                <mxCell id="24jAjjag3Yym39tfX2p5-33" value="CPV" style="swimlane;whiteSpace=wrap;html=1;startSize=30;" parent="1" vertex="1">
                    <mxGeometry x="30" y="-891" width="200" height="60" as="geometry"/>
                </mxCell>
                <mxCell id="24jAjjag3Yym39tfX2p5-34" value="codigo: String&lt;div&gt;descricao: String&lt;/div&gt;" style="whiteSpace=wrap;html=1;align=left;" parent="24jAjjag3Yym39tfX2p5-33" vertex="1">
                    <mxGeometry y="23" width="200" height="37" as="geometry"/>
                </mxCell>
                <mxCell id="24jAjjag3Yym39tfX2p5-38" value="TiposAcordoQuadro" style="swimlane;whiteSpace=wrap;html=1;startSize=30;align=center;" parent="1" vertex="1">
                    <mxGeometry x="30" y="-817" width="200" height="60" as="geometry"/>
                </mxCell>
                <mxCell id="24jAjjag3Yym39tfX2p5-39" value="identificador: String&lt;span style=&quot;text-align: justify;&quot;&gt;&amp;nbsp;[0..1]&lt;/span&gt;&lt;br&gt;descricaoAcordoContrato:&amp;nbsp;String" style="whiteSpace=wrap;html=1;align=left;" parent="24jAjjag3Yym39tfX2p5-38" vertex="1">
                    <mxGeometry y="23" width="200" height="37" as="geometry"/>
                </mxCell>
                <mxCell id="24jAjjag3Yym39tfX2p5-50" value="1..*" style="text;html=1;align=center;verticalAlign=middle;resizable=0;points=[];autosize=1;strokeColor=none;fillColor=none;" parent="1" vertex="1">
                    <mxGeometry x="358" y="-727" width="40" height="30" as="geometry"/>
                </mxCell>
                <mxCell id="24jAjjag3Yym39tfX2p5-52" value="1..*" style="text;html=1;align=center;verticalAlign=middle;resizable=0;points=[];autosize=1;strokeColor=none;fillColor=none;" parent="1" vertex="1">
                    <mxGeometry x="460" y="-730" width="40" height="30" as="geometry"/>
                </mxCell>
                <mxCell id="24jAjjag3Yym39tfX2p5-53" value="1" style="text;html=1;align=center;verticalAlign=middle;resizable=0;points=[];autosize=1;strokeColor=none;fillColor=none;" parent="1" vertex="1">
                    <mxGeometry x="359" y="-662" width="30" height="30" as="geometry"/>
                </mxCell>
                <mxCell id="24jAjjag3Yym39tfX2p5-54" value="*" style="text;html=1;align=center;verticalAlign=middle;resizable=0;points=[];autosize=1;strokeColor=none;fillColor=none;" parent="1" vertex="1">
                    <mxGeometry x="460" y="-658" width="30" height="30" as="geometry"/>
                </mxCell>
                <mxCell id="24jAjjag3Yym39tfX2p5-66" value="1" style="text;html=1;align=center;verticalAlign=middle;resizable=0;points=[];autosize=1;strokeColor=none;fillColor=none;" parent="1" vertex="1">
                    <mxGeometry x="493" y="-950" width="30" height="30" as="geometry"/>
                </mxCell>
                <mxCell id="24jAjjag3Yym39tfX2p5-67" value="1..*" style="text;html=1;align=center;verticalAlign=middle;resizable=0;points=[];autosize=1;strokeColor=none;fillColor=none;" parent="1" vertex="1">
                    <mxGeometry x="494" y="-896" width="40" height="30" as="geometry"/>
                </mxCell>
                <mxCell id="24jAjjag3Yym39tfX2p5-72" value="1..*" style="text;html=1;align=center;verticalAlign=middle;resizable=0;points=[];autosize=1;strokeColor=none;fillColor=none;" parent="1" vertex="1">
                    <mxGeometry x="328" y="-895" width="40" height="30" as="geometry"/>
                </mxCell>
                <mxCell id="24jAjjag3Yym39tfX2p5-79" value="&lt;font color=&quot;#000000&quot;&gt;Diagrama UML&lt;/font&gt;&lt;div style=&quot;font-size: 18px;&quot;&gt;&lt;font color=&quot;#000000&quot;&gt;Contratos pÃºblicos&lt;/font&gt;&lt;/div&gt;" style="text;html=1;align=center;verticalAlign=middle;resizable=0;points=[];autosize=1;strokeColor=#6c8ebf;fillColor=#dae8fc;fontStyle=1;fontSize=18;" parent="1" vertex="1">
                    <mxGeometry x="320" y="-1100" width="190" height="60" as="geometry"/>
                </mxCell>
                <mxCell id="sc01ruT6ysA6_fWMWiFZ-15" value="" style="edgeStyle=orthogonalEdgeStyle;rounded=0;orthogonalLoop=1;jettySize=auto;html=1;" parent="1" source="xRIgmgWvNkVK1j1N1y1u-5" target="xRIgmgWvNkVK1j1N1y1u-8" edge="1">
                    <mxGeometry relative="1" as="geometry"/>
                </mxCell>
                <mxCell id="xRIgmgWvNkVK1j1N1y1u-5" value="Distrito" style="swimlane;whiteSpace=wrap;html=1;" parent="1" vertex="1">
                    <mxGeometry x="695" y="-727" width="200" height="46" as="geometry"/>
                </mxCell>
                <mxCell id="xRIgmgWvNkVK1j1N1y1u-6" value="&lt;div&gt;nome: String&lt;/div&gt;" style="rounded=0;whiteSpace=wrap;html=1;align=left;" parent="xRIgmgWvNkVK1j1N1y1u-5" vertex="1">
                    <mxGeometry y="23" width="200" height="27" as="geometry"/>
                </mxCell>
                <mxCell id="xRIgmgWvNkVK1j1N1y1u-7" value="Pais" style="swimlane;whiteSpace=wrap;html=1;" parent="1" vertex="1">
                    <mxGeometry x="695" y="-634" width="200" height="50" as="geometry"/>
                </mxCell>
                <mxCell id="xRIgmgWvNkVK1j1N1y1u-8" value="&lt;div&gt;nome: String&lt;/div&gt;" style="rounded=0;whiteSpace=wrap;html=1;align=left;" parent="xRIgmgWvNkVK1j1N1y1u-7" vertex="1">
                    <mxGeometry y="23" width="200" height="27" as="geometry"/>
                </mxCell>
                <mxCell id="xRIgmgWvNkVK1j1N1y1u-9" style="edgeStyle=orthogonalEdgeStyle;rounded=0;orthogonalLoop=1;jettySize=auto;html=1;exitX=0.5;exitY=1;exitDx=0;exitDy=0;entryX=0.5;entryY=0;entryDx=0;entryDy=0;endArrow=none;endFill=0;" parent="1" source="24jAjjag3Yym39tfX2p5-18" target="xRIgmgWvNkVK1j1N1y1u-5" edge="1">
                    <mxGeometry relative="1" as="geometry"/>
                </mxCell>
                <mxCell id="xRIgmgWvNkVK1j1N1y1u-10" style="edgeStyle=orthogonalEdgeStyle;rounded=0;orthogonalLoop=1;jettySize=auto;html=1;exitX=0.5;exitY=1;exitDx=0;exitDy=0;entryX=0.5;entryY=0;entryDx=0;entryDy=0;endArrow=none;endFill=0;" parent="1" source="xRIgmgWvNkVK1j1N1y1u-6" target="xRIgmgWvNkVK1j1N1y1u-7" edge="1">
                    <mxGeometry relative="1" as="geometry"/>
                </mxCell>
                <mxCell id="sc01ruT6ysA6_fWMWiFZ-6" value="&lt;span style=&quot;color: rgb(0, 0, 0); font-family: Helvetica; font-size: 12px; font-style: normal; font-variant-ligatures: normal; font-variant-caps: normal; font-weight: 700; letter-spacing: normal; orphans: 2; text-align: center; text-indent: 0px; text-transform: none; widows: 2; word-spacing: 0px; -webkit-text-stroke-width: 0px; white-space: normal; background-color: rgb(251, 251, 251); text-decoration-thickness: initial; text-decoration-style: initial; text-decoration-color: initial; display: inline !important; float: none;&quot;&gt;LocalDeExecucao&lt;/span&gt;" style="text;whiteSpace=wrap;html=1;" parent="1" vertex="1">
                    <mxGeometry x="554" y="-826" width="107" height="26" as="geometry"/>
                </mxCell>
                <mxCell id="sc01ruT6ysA6_fWMWiFZ-13" style="edgeStyle=orthogonalEdgeStyle;rounded=0;orthogonalLoop=1;jettySize=auto;html=1;exitX=1;exitY=0.5;exitDx=0;exitDy=0;entryX=-0.006;entryY=0.789;entryDx=0;entryDy=0;entryPerimeter=0;endArrow=none;endFill=0;" parent="1" source="24jAjjag3Yym39tfX2p5-38" target="24jAjjag3Yym39tfX2p5-3" edge="1">
                    <mxGeometry relative="1" as="geometry"/>
                </mxCell>
                <mxCell id="sc01ruT6ysA6_fWMWiFZ-17" value="1..*" style="text;html=1;align=center;verticalAlign=middle;resizable=0;points=[];autosize=1;strokeColor=none;fillColor=none;" parent="1" vertex="1">
                    <mxGeometry x="328" y="-952" width="40" height="30" as="geometry"/>
                </mxCell>
                <mxCell id="sc01ruT6ysA6_fWMWiFZ-18" style="edgeStyle=orthogonalEdgeStyle;rounded=0;orthogonalLoop=1;jettySize=auto;html=1;exitX=0.75;exitY=1;exitDx=0;exitDy=0;entryX=0.098;entryY=-0.001;entryDx=0;entryDy=0;entryPerimeter=0;endArrow=none;endFill=0;" parent="1" source="24jAjjag3Yym39tfX2p5-30" target="24jAjjag3Yym39tfX2p5-2" edge="1">
                    <mxGeometry relative="1" as="geometry"/>
                </mxCell>
                <mxCell id="sc01ruT6ysA6_fWMWiFZ-21" style="edgeStyle=orthogonalEdgeStyle;rounded=0;orthogonalLoop=1;jettySize=auto;html=1;exitX=0.25;exitY=1;exitDx=0;exitDy=0;entryX=0.687;entryY=0.012;entryDx=0;entryDy=0;entryPerimeter=0;endArrow=none;endFill=0;" parent="1" edge="1">
                    <mxGeometry relative="1" as="geometry">
                        <mxPoint x="499.5" y="-944" as="sourcePoint"/>
                        <mxPoint x="499.4000000000001" y="-871.284" as="targetPoint"/>
                        <Array as="points">
                            <mxPoint x="499" y="-908"/>
                        </Array>
                    </mxGeometry>
                </mxCell>
                <mxCell id="sc01ruT6ysA6_fWMWiFZ-22" value="1..*" style="text;html=1;align=center;verticalAlign=middle;resizable=0;points=[];autosize=1;strokeColor=none;fillColor=none;" parent="1" vertex="1">
                    <mxGeometry x="285" y="-842" width="40" height="30" as="geometry"/>
                </mxCell>
                <mxCell id="sc01ruT6ysA6_fWMWiFZ-23" value="1..*" style="text;html=1;align=center;verticalAlign=middle;resizable=0;points=[];autosize=1;strokeColor=none;fillColor=none;" parent="1" vertex="1">
                    <mxGeometry x="220" y="-842" width="40" height="30" as="geometry"/>
                </mxCell>
                <mxCell id="sc01ruT6ysA6_fWMWiFZ-24" value="1..*" style="text;html=1;align=center;verticalAlign=middle;resizable=0;points=[];autosize=1;strokeColor=none;fillColor=none;" parent="1" vertex="1">
                    <mxGeometry x="220" y="-773" width="40" height="30" as="geometry"/>
                </mxCell>
                <mxCell id="sc01ruT6ysA6_fWMWiFZ-25" value="0..1" style="text;html=1;align=center;verticalAlign=middle;resizable=0;points=[];autosize=1;strokeColor=none;fillColor=none;" parent="1" vertex="1">
                    <mxGeometry x="285" y="-772" width="40" height="30" as="geometry"/>
                </mxCell>
                <mxCell id="sc01ruT6ysA6_fWMWiFZ-26" value="1" style="text;html=1;align=center;verticalAlign=middle;resizable=0;points=[];autosize=1;strokeColor=none;fillColor=none;" parent="1" vertex="1">
                    <mxGeometry x="784" y="-750" width="30" height="30" as="geometry"/>
                </mxCell>
                <mxCell id="sc01ruT6ysA6_fWMWiFZ-27" value="1" style="text;html=1;align=center;verticalAlign=middle;resizable=0;points=[];autosize=1;strokeColor=none;fillColor=none;" parent="1" vertex="1">
                    <mxGeometry x="784" y="-658" width="30" height="30" as="geometry"/>
                </mxCell>
                <mxCell id="sc01ruT6ysA6_fWMWiFZ-28" value="1..*" style="text;html=1;align=center;verticalAlign=middle;resizable=0;points=[];autosize=1;strokeColor=none;fillColor=none;" parent="1" vertex="1">
                    <mxGeometry x="785" y="-784" width="40" height="30" as="geometry"/>
                </mxCell>
                <mxCell id="sc01ruT6ysA6_fWMWiFZ-29" value="1..*" style="text;html=1;align=center;verticalAlign=middle;resizable=0;points=[];autosize=1;strokeColor=none;fillColor=none;" parent="1" vertex="1">
                    <mxGeometry x="784" y="-685" width="40" height="30" as="geometry"/>
                </mxCell>
                <mxCell id="sc01ruT6ysA6_fWMWiFZ-30" value="1..*" style="text;html=1;align=center;verticalAlign=middle;resizable=0;points=[];autosize=1;strokeColor=none;fillColor=none;" parent="1" vertex="1">
                    <mxGeometry x="660" y="-826" width="40" height="30" as="geometry"/>
                </mxCell>
                <mxCell id="sc01ruT6ysA6_fWMWiFZ-31" value="1..*" style="text;html=1;align=center;verticalAlign=middle;resizable=0;points=[];autosize=1;strokeColor=none;fillColor=none;" parent="1" vertex="1">
                    <mxGeometry x="510" y="-826" width="40" height="30" as="geometry"/>
                </mxCell>
            </root>
        </mxGraphModel>
    </diagram>
</mxfile>